<svg id="Layer_1" data-name="Layer 1" xmlns="http://www.w3.org/2000/svg" viewBox="0 0 324.65 324.65"><g id="doit-logo-white">
<path d="M253.711 93.8418L247.711 93.8418C247.711 93.8418 239.541 93.7218 237.961 94.0618C232.371 95.2818 227.361 101.702 227.361 107.352C227.361 110.442 228.241 117.352 237.961 120.472L247.711 120.472L253.711 120.472L253.711 93.8418ZM166.662 230.412C154.274 228.455 143.157 221.692 135.722 211.592C129.647 203.47 126.458 193.552 126.662 183.412C126.662 161.602 140.092 144.052 161.662 137.632C166.052 136.332 176.222 135.832 181.502 136.632C199.427 139.568 214.126 152.434 219.411 169.812C222.151 179.492 222.221 187.862 219.411 196.942C214.633 213.058 201.71 225.46 185.412 229.572C179.239 230.955 172.871 231.232 166.602 230.392L166.662 230.412ZM180.722 204.742C186.005 202.95 190.49 199.357 193.391 194.592C196.261 189.502 197.071 182.042 195.321 176.712C193.12 170.003 187.896 164.717 181.214 162.435C174.532 160.153 167.167 161.141 161.322 165.102C154.367 170.063 150.827 178.538 152.187 186.971C153.547 195.405 159.571 202.338 167.732 204.862C170.732 205.862 177.732 205.762 180.732 204.742L180.722 204.742ZM234.821 229.802C233.223 229.014 231.772 227.959 230.531 226.682C227.121 222.792 227.251 217.952 227.251 183.242C227.251 149.382 227.161 144.652 230.101 140.812C231.193 139.535 232.483 138.441 233.921 137.572C236.071 136.312 236.921 136.122 240.601 136.122C244.281 136.122 245.081 136.282 247.381 137.712C250.705 139.696 252.921 143.108 253.381 146.952C253.691 148.952 253.741 150.312 253.741 185.602C253.741 217.972 253.801 222.792 250.431 226.792C247.061 230.792 240.011 232.222 234.801 229.792L234.821 229.802ZM270.491 230.312C267.432 229.288 264.874 227.144 263.331 224.312C262.221 221.912 262.441 216.702 262.331 192.822L262.331 93.7618L275.251 93.7618C275.251 93.7618 312.48 93.4218 314.06 93.7618C319.65 94.9818 324.65 101.402 324.65 107.042C324.401 110.656 322.755 114.031 320.06 116.452C316.25 119.602 315.34 119.942 304.3 120.242L288.3 120.242L288.3 193.242C288.3 217.712 288.55 222.982 287.45 225.072C286.074 227.31 284.002 229.035 281.55 229.982C277.979 231.262 274.094 231.381 270.451 230.322L270.491 230.312Z" fill="#FFFFFF" fill-rule="evenodd" opacity="1" stroke="none"/>
<path d="M9.32352 230.262C7.44941 229.411 5.75301 228.213 4.32357 226.732C-0.286375 222.122 0.00362171 226.402 0.00362171 163.182C0.00362171 102.952-0.0563776 104.562 2.92359 100.402C5.12417 97.5312 8.2577 95.5188 11.7835 94.7118C15.2735 93.9718 53.273 93.9318 61.0529 94.7118C90.2195 97.2255 114.592 117.941 121.772 146.322C130.212 179.762 111.372 214.862 78.4827 226.962C68.9629 230.462 56.253 230.752 32.8333 230.962C24.3933 230.832 14.4335 231.522 9.32351 230.292L9.32352 230.262ZM58.833 204.042C74.5328 202.742 86.7127 195.042 93.1226 182.282C99.5325 169.522 99.0625 151.732 92.0626 139.072C89.2226 133.942 82.3827 127.332 77.0628 124.582C69.2828 120.582 67.1229 119.882 50.8331 119.902L26.5433 119.672L26.5433 204.222C27.0533 204.732 51.903 204.612 58.833 204.042Z" fill="#FFFFFF" fill-rule="evenodd" opacity="1" stroke="none"/>
</g>
</svg>
