<svg height="512pt" preserveAspectRatio="xMidYMid meet" viewBox="0 0 512 512" width="512pt" xmlns="http://www.w3.org/2000/svg"><g transform="matrix(.1 0 0 -.1 0 512)"><path d="m3605 3610c-116-6-152-21-190-79-35-52-42-101-21-155 35-91 98-121 233-111l93 7v168c0 93-3 170-7 172-5 2-53 1-108-2z"/><path d="m3824 3594c-4-14-5-385-2-824 4-763 5-799 24-830 52-90 203-103 281-25l33 33v660 660l174 4 174 3 37 30c39 32 85 104 85 133s-36 95-67 123c-67 62-49 59-405 59h-328z"/><path d="m694 3601c-77-8-130-34-160-79-39-59-43-140-43-792 0-696 4-747 55-801 61-65 57-64 404-61 348 3 468 15 572 57 99 40 189 98 272 176 301 281 366 721 158 1072-128 216-329 358-587 413-79 17-550 28-671 15zm700-352c80-27 151-75 212-141 88-97 127-210 127-368 1-266-155-461-409-515-48-10-133-15-276-15h-208v533 532l247-3c215-3 256-6 307-23z"/><path d="m2570 3060c-152-31-335-176-402-320-46-97-62-165-62-270 0-173 54-301 179-425 125-125 249-176 425-176 112 0 188 18 279 66 129 68 230 184 288 331 25 62 27 82 28 199 0 111-3 140-23 197-60 173-202 316-378 380-66 24-253 34-334 18zm218-325c69-21 129-69 166-135 26-46 30-65 30-125 0-117-52-203-158-257-63-33-175-30-242 5-93 47-154 146-154 247 0 147 126 276 271 279 19 1 58-6 87-14z"/><path d="m3460 3047c-19-12-43-38-54-57-20-34-21-53-24-455-4-477 0-550 31-597 67-98 230-95 285 5 15 29 17 80 20 507 2 317 0 487-7 511-6 21-29 53-51 73-37 33-45 36-104 36-49 0-71-5-96-23z"/></g></svg>